<mxfile host="app.diagrams.net" modified="2024-01-27T11:17:02.786Z" agent="Mozilla/5.0 (Macintosh; Intel Mac OS X 10_15_7) AppleWebKit/537.36 (KHTML, like Gecko) Chrome/120.0.0.0 Safari/537.36" etag="rpXiYvX9NeUoHevsacjB" version="23.0.2" type="device">
  <diagram name="Page-1" id="VSJf7h39v1nqh9lsou3p">
    <mxGraphModel dx="1306" dy="826" grid="1" gridSize="10" guides="1" tooltips="1" connect="1" arrows="1" fold="1" page="1" pageScale="1" pageWidth="850" pageHeight="1100" math="0" shadow="0">
      <root>
        <mxCell id="0" />
        <mxCell id="1" parent="0" />
        <mxCell id="Y02xI4i-nHPG8QJONlCj-11" style="edgeStyle=orthogonalEdgeStyle;rounded=0;orthogonalLoop=1;jettySize=auto;html=1;exitX=0.5;exitY=0;exitDx=0;exitDy=0;entryX=0;entryY=0.5;entryDx=0;entryDy=0;strokeWidth=3;curved=1;" edge="1" parent="1" source="Y02xI4i-nHPG8QJONlCj-6" target="Y02xI4i-nHPG8QJONlCj-7">
          <mxGeometry relative="1" as="geometry" />
        </mxCell>
        <mxCell id="Y02xI4i-nHPG8QJONlCj-12" style="edgeStyle=orthogonalEdgeStyle;rounded=0;orthogonalLoop=1;jettySize=auto;html=1;exitX=0.5;exitY=1;exitDx=0;exitDy=0;entryX=0;entryY=0.5;entryDx=0;entryDy=0;strokeWidth=3;curved=1;" edge="1" parent="1" source="Y02xI4i-nHPG8QJONlCj-6" target="Y02xI4i-nHPG8QJONlCj-8">
          <mxGeometry relative="1" as="geometry" />
        </mxCell>
        <mxCell id="Y02xI4i-nHPG8QJONlCj-6" value="&lt;font style=&quot;font-size: 20px;&quot; color=&quot;#ffffff&quot; face=&quot;Ubuntu&quot;&gt;&lt;b&gt;Job 1&lt;/b&gt;&lt;/font&gt;" style="rounded=1;whiteSpace=wrap;html=1;strokeColor=none;fillColor=#1E84F7;" vertex="1" parent="1">
          <mxGeometry x="80" y="320" width="120" height="60" as="geometry" />
        </mxCell>
        <mxCell id="Y02xI4i-nHPG8QJONlCj-13" style="edgeStyle=orthogonalEdgeStyle;rounded=0;orthogonalLoop=1;jettySize=auto;html=1;exitX=1;exitY=0.5;exitDx=0;exitDy=0;strokeWidth=3;curved=1;" edge="1" parent="1" source="Y02xI4i-nHPG8QJONlCj-7" target="Y02xI4i-nHPG8QJONlCj-9">
          <mxGeometry relative="1" as="geometry" />
        </mxCell>
        <mxCell id="Y02xI4i-nHPG8QJONlCj-7" value="&lt;font style=&quot;font-size: 20px;&quot; color=&quot;#ffffff&quot; face=&quot;Ubuntu&quot;&gt;&lt;b&gt;Terminal&lt;br&gt;Job A&lt;/b&gt;&lt;/font&gt;" style="rounded=1;whiteSpace=wrap;html=1;strokeColor=none;fillColor=#1E84F7;" vertex="1" parent="1">
          <mxGeometry x="320" y="220" width="120" height="60" as="geometry" />
        </mxCell>
        <mxCell id="Y02xI4i-nHPG8QJONlCj-14" style="edgeStyle=orthogonalEdgeStyle;rounded=0;orthogonalLoop=1;jettySize=auto;html=1;exitX=1;exitY=0.5;exitDx=0;exitDy=0;strokeWidth=3;curved=1;" edge="1" parent="1" source="Y02xI4i-nHPG8QJONlCj-8" target="Y02xI4i-nHPG8QJONlCj-9">
          <mxGeometry relative="1" as="geometry" />
        </mxCell>
        <mxCell id="Y02xI4i-nHPG8QJONlCj-8" value="&lt;font style=&quot;font-size: 20px;&quot; color=&quot;#ffffff&quot; face=&quot;Ubuntu&quot;&gt;&lt;b&gt;Terminal&lt;br&gt;Job B&lt;/b&gt;&lt;/font&gt;" style="rounded=1;whiteSpace=wrap;html=1;strokeColor=none;fillColor=#1E84F7;" vertex="1" parent="1">
          <mxGeometry x="320" y="430" width="120" height="60" as="geometry" />
        </mxCell>
        <mxCell id="Y02xI4i-nHPG8QJONlCj-9" value="&lt;font style=&quot;font-size: 20px;&quot; color=&quot;#ffffff&quot; face=&quot;Ubuntu&quot;&gt;&lt;b&gt;slack-notifiction&lt;/b&gt;&lt;/font&gt;" style="rounded=1;whiteSpace=wrap;html=1;strokeColor=none;fillColor=#1E84F7;" vertex="1" parent="1">
          <mxGeometry x="560" y="320" width="120" height="60" as="geometry" />
        </mxCell>
      </root>
    </mxGraphModel>
  </diagram>
</mxfile>
